<svg width="32" height="34" viewBox="0 0 32 34" fill="none" xmlns="http://www.w3.org/2000/svg">
<path d="M27.4121 9L30.8467 33H1.15332L4.58789 9H27.4121Z" stroke="white" stroke-width="2"/>
<mask id="path-2-inside-1_42_746" fill="white">
<path fill-rule="evenodd" clip-rule="evenodd" d="M16.0001 0C11.9458 0 8.65918 3.28664 8.65918 7.34092V10.0456H23.341V7.34091C23.341 3.28664 20.0544 0 16.0001 0Z"/>
</mask>
<path d="M8.65918 10.0456H6.65918V12.0456H8.65918V10.0456ZM23.341 10.0456V12.0456H25.341V10.0456H23.341ZM10.6592 7.34092C10.6592 4.39121 13.0504 2 16.0001 2V-2C10.8412 -2 6.65918 2.18208 6.65918 7.34092H10.6592ZM10.6592 10.0456V7.34092H6.65918V10.0456H10.6592ZM8.65918 12.0456H23.341V8.04561H8.65918V12.0456ZM21.341 7.34091V10.0456H25.341V7.34091H21.341ZM16.0001 2C18.9498 2 21.341 4.39121 21.341 7.34091H25.341C25.341 2.18207 21.1589 -2 16.0001 -2V2Z" fill="white" mask="url(#path-2-inside-1_42_746)"/>
</svg>
