<svg width="15" height="12" viewBox="0 0 15 12" fill="none" xmlns="http://www.w3.org/2000/svg">
<path d="M14.434 0H0.534594C0.392811 0 0.256835 0.0573473 0.156579 0.159426C0.0563231 0.261504 0 0.399953 0 0.544314V11.4306C0 11.5749 0.0563231 11.7134 0.156579 11.8155C0.256835 11.9176 0.392811 11.9749 0.534594 11.9749H14.434C14.5758 11.9749 14.7118 11.9176 14.812 11.8155C14.9123 11.7134 14.9686 11.5749 14.9686 11.4306V0.544314C14.9686 0.399953 14.9123 0.261504 14.812 0.159426C14.7118 0.0573473 14.5758 0 14.434 0ZM7.81242 6.96143C7.7186 7.03569 7.60315 7.07601 7.48431 7.07601C7.36548 7.07601 7.25003 7.03569 7.1562 6.96143L1.92287 2.81716L2.57908 1.95783L7.48431 5.84219L12.3895 1.95783L13.0458 2.81716L7.81242 6.96143Z" fill="#CCAA60"/>
</svg>
